<?xml version="1.0" encoding="UTF-8"?>
<svg viewBox="0 0 640 480" xmlns="http://www.w3.org/2000/svg">
 <g>
  <path transform="rotate(45 386.54 251.5)" d="m400.55 340.1c-0.18619-0.16971-1.7647-0.45242-3.5078-0.62826-1.7431-0.17581-4.6785-0.90344-6.5232-1.6168-1.8445-0.71347-6.9822-2.1709-11.417-3.2389-4.4348-1.0679-8.8581-2.2207-9.8294-2.5618-0.97134-0.341-2.5958-0.6264-3.6098-0.63416-1.0139-0.007782-2.6082-0.5567-3.5429-1.22l-1.6993-1.2059 1.1558-3.0602c2.1134-5.5954 7.9514-26.421 9.3997-33.532 1.5104-7.4153 2.6593-19.592 2.2356-23.695-0.21915-2.1225-0.52032-2.5001-2.2478-2.8192-1.6829-0.31079-1.9948-0.67322-1.9948-2.318 0-1.0724 0.50204-2.8462 1.1157-3.9421 0.94644-1.6902 1.0427-3.296 0.63495-10.59-0.52268-9.3504-0.71164-9.8574-5.2298-14.03-2.5114-2.3192-2.7006-2.7473-2.7006-6.1084 0-4.507-1.2169-3.8167-1.8402 1.0438l-0.4305 3.3563-3.4996-0.3933c-1.9247-0.21632-4.6454-0.57123-6.0458-0.78865-2.4762-0.38437-2.5779-0.32256-3.6875 2.2383-1.9135 4.4165 1.2849 4.1773-38.742 2.8969-5.476-0.17522-19.998-0.59839-32.272-0.94046-33.192-0.92499-42.145-1.3383-43.012-1.9856-0.43063-0.32156-1.4282-1.9695-2.2167-3.662-1.7763-3.8135-3.1625-4.4581-4.1218-1.917-0.6347 1.6815-0.9991 1.8638-3.7249 1.8638-2.8408 0-3.0861-0.1421-4.1058-2.3779-0.59651-1.3078-1.2696-3.1714-1.496-4.1412-0.40219-1.7238-0.49057-1.7536-3.9322-1.3321-2.7195 0.33314-3.692 0.21724-4.2732-0.50923-0.41374-0.51738-1.9111-1.1127-3.3273-1.3231l-2.5749-0.3824v3.3209c0 1.8264-0.37079 3.6633-0.82399 4.0818-1.1904 1.0993-5.3146 0.96394-5.7942-0.1902-0.26871-0.64684-1.3656-0.95114-3.4286-0.95114-2.6244 0-3.1238-0.21933-3.7032-1.6266-0.99495-2.4167-0.81134-5.2124 0.38296-5.8295 0.63148-0.3264-3.0077-0.60254-9.0981-0.69041-5.5828-0.080597-11.172-0.44807-12.421-0.81662-1.3311-0.39299-5.0231-0.52643-8.9264-0.32262-3.661 0.19113-14.304 0.34883-23.651 0.35042-5.1325 0.21068-10.002 0.16945-13.859 0.12199-3.8568-0.047485-6.7007-0.10123-7.7814 0.084351-23.175-0.015289-29.853-0.086166-30.943-1.5233-0.90657-1.1953-1.4431-3.5389-1.6451-7.1856-0.10497-1.8955 0.89594-4.9339 2.0195-6.1304 9.5391-0.016006 22.903-0.20291 30.408-0.2161 1.8346 0.21599 5.4663 0.42267 10.3 0.59836 4.8333 0.1757 10.868 0.32046 17.51 0.41254 5.2872 0.073349 10.364 0.38914 11.283 0.70177 0.95369 0.32465 9.846 0.37859 20.734 0.12584l19.065-0.4426 0.0272-16.974c0.02681-16.679 0.40259-19.915 2.3358-20.114 0.44012-0.045288 2.1907-0.26012 3.8901-0.47742 3.8518-0.49243 3.1833-1.0672 15.754 13.545 5.8508 6.8008 10.113 11.236 10.395 10.815 0.53232-0.79541 116.37-1.7113 119.67-0.94627 1.4568 0.33766 1.9969 1.011 2.6672 3.3253l0.8404 2.9019 3.4446-0.4095c1.8945-0.22522 4.5415-0.56587 5.8821-0.75694 2.3557-0.33572 2.46-0.26526 3.0952 2.0912 0.51611 1.9141 0.69 0.27731 0.80823-7.6083 0.13696-9.13 0.29318-10.281 1.7114-12.606 0.85828-1.4074 2.7966-3.3747 4.3072-4.3717 2.7102-1.7887 3.0199-1.8338 23.346-3.4042 34.705-2.6812 59.954-4.7402 70.213-5.7258 5.3835-0.51714 11.962-0.94023 14.618-0.94023 4.6385 0 4.9397 0.094788 7.6096 2.3947 2.1664 1.8662 2.9193 3.0828 3.4108 5.5126 0.34689 1.7149 0.45361 3.6334 0.23709 4.2634-0.26276 0.76436-0.04364 1.1455 0.65836 1.1455 1.3318 0 2.1791 1.4721 4.9171 8.542 2.0137 5.1996 2.3892 5.7331 4.3696 6.207 2.4893 0.59567 5.5755 3.1027 4.3021 3.4947-1.6615 0.51144-0.74579 1.1844 1.2446 0.91467 1.8663-0.25294 2.0674-0.10861 2.139 1.5366 0.043457 0.99866 0.024078 2.3151-0.043182 2.9254-0.090271 0.81908 0.38364 1.1116 1.8093 1.1172 1.0623 0.004135 3.6309 0.42876 5.7081 0.94362 2.0771 0.51485 5.0897 0.9395 6.6946 0.94362 2.1327 0.005478 2.9183 0.2636 2.9183 0.95868 0 0.82642 2.9952 0.95117 22.838 0.95117 22.239 0 22.86-0.033905 23.712-1.2928 0.4809-0.71104 1.1954-1.1096 1.5877-0.88568 0.3924 0.22394 17.806 0.55808 38.698 0.74251l37.984 0.3354 5.077-4.0891c2.7925-2.249 6.9499-5.2634 9.2386-6.6988 2.2888-1.4354 5.8749-4.0559 7.9692-5.8234 2.0941-1.7674 4.2824-3.2136 4.863-3.2136 0.58044 0 1.7203 0.7847 2.5328 1.7438 0.81238 0.95909 2.1481 1.9022 2.9681 2.0959 0.98968 0.23381 1.4281 0.76807 1.3041 1.5897-0.1026 0.68068 0.3891 2.805 1.0927 4.7207 1.1657 3.174 1.4869 3.5113 3.6199 3.8002 1.9917 0.26981 2.5908 0.78365 4.0208 3.4488 1.6022 2.9863 1.6815 3.6931 1.7027 15.218 0.033386 17.897-1.1172 32.197-3.8292 47.596-0.73706 4.1851-1.764 8.0049-2.282 8.4886-1.3331 1.2446-2.9079 0.47378-4.0102-1.9626-0.75244-1.6626-1.774-2.4038-5-3.6269-2.2299-0.84549-8.7976-3.6271-14.595-6.1813-5.7971-2.5543-10.772-4.6441-11.054-4.6441-0.28259 0-0.57831 2.047-0.65747 4.5489-0.23657 7.481-0.37238 7.5208-8.1395 2.3827-3.6782-2.4331-9.0052-5.9563-11.838-7.8292-4.5534-3.0108-5.6071-3.4317-9.0917-3.6318-4.1698-0.23952-4.641 0.057419-4.641 2.924 0 1.7123-2.4852 2.3121-6.0478 1.4595-1.8456-0.44167-2.1919-0.82222-2.1919-2.4087 0-1.3526-0.33911-1.8983-1.2016-1.9343-0.66095-0.027664-3.351-0.13257-5.978-0.23338-2.8249-0.10825-4.8838-0.48099-5.0394-0.91226-0.14478-0.40103-0.77637-1.2083-1.4036-1.7938-0.91064-0.8502-1.1403-2.3489-1.1403-7.4394v-6.3747l-11.984-0.1767c-10.626-0.15671-12.118-0.30963-13.167-1.3497-0.95123-0.94286-2.2446-1.1794-6.5947-1.2059-4.7961-0.029266-5.9667-0.29039-10.295-2.2964-4.793-2.2214-5.0378-2.2634-13.179-2.2634-5.0726 0-8.2954-0.24637-8.2954-0.63409 0-1.0783-7.3456-0.77978-7.8014 0.31705-0.27075 0.65181-1.3743 0.95113-3.5066 0.95113-1.7112 0-3.1227 0.21402-3.1363 0.4756-0.15149 2.902-0.83771 11.915-0.91357 11.999-0.054626 0.060059-2.2604 0.17293-4.902 0.25076-2.951 0.08699-5.7292 0.57352-7.206 1.262-2.8951 1.3497-6.2873 4.5743-7.8802 7.4908-2.2794 4.1735-2.1859 4.3318 24.828 42.068 3.9229 5.4801 7.557 10.356 8.0755 10.834 0.51843 0.47894 1.234 1.845 1.5902 3.036 1.498 5.0102-1.6164 6.55-20.434 10.102-11.95 2.2558-15.267 2.376-17.166 0.62216-1.446-1.3353-1.815-4.3937-0.75174-6.2287 0.67975-1.1728 0.18219-2.2028-6.0288-12.484-4.7392-7.8441-6.4364-9.6756-9.4511-10.198-3.2372-0.56082-4.3303-2.6531-2.877-5.5068 0.86972-1.7078 0.89722-2.3641 0.16736-3.9898-1.403-3.1248-2.4616-3.5362-10.044-3.9032-3.8847-0.18814-7.4129-0.59692-7.8407-0.90842-1.1449-0.83411-25.716-0.69925-29.418 0.16135-1.7218 0.40042-3.2696 0.93588-3.4396 1.19-0.17014 0.25421-0.63882 3.7145-1.0416 7.6898-1.0317 10.184-3.2057 21.751-5.8268 31.007-1.2348 4.3595-2.7922 9.9237-3.461 12.365-0.66885 2.4413-1.6334 5.3379-2.1435 6.4369-0.51007 1.099-0.92743 2.8758-0.92743 3.9486 0 1.336-0.49796 2.2517-1.5809 2.907-1.7036 1.0308-5.4246 1.9008-5.977 1.3975zm55.97-74.898c3.7022-2.8016 4.936-5.3643 3.801-7.8949-1.0686-2.3826-3.3193-4.2961-5.693-4.8401-1.8559-0.42538-1.8882-0.38249-1.8882 2.5098 0 1.6184-0.47925 4.0035-1.0648 5.3-1.0484 2.3212-4.8582 6.4792-5.9364 6.4792-0.97345 0-0.58942-2.3525 0.52325-3.2052 2.1297-1.6323 3.193-4.4504 2.7376-7.2554-0.77362-4.7641-1.2139-4.9818-9.8523-4.8742-8.7274 0.10872-12.298 1.0924-14.08 3.8788-1.5923 2.4893-1.5341 2.9234 1.0425 7.7732l2.2545 4.2434 12.632 0.0368 12.632 0.0368 2.8917-2.1882zm-236.95-68.112c0.37997-0.56781-2.4894-4.8406-5.2386-7.8007-0.86386-0.93022-2.8005-3.1416-4.3038-4.9143-3.845-4.5344-6.5367-4.3316-6.5367 0.49237 0 2.025-1.7296 4.528-3.1288 4.528-0.75037 0-0.99106 0.89833-0.99106 3.6989 0 2.0344 0.20599 3.8892 0.45779 4.1217 0.68251 0.63032 19.314 0.51149 19.741-0.1259zm231.71-10.453c6.0275-1.3662 7.1535-6.0269 2.2042-9.123-1.6486-1.0312-4.5767-1.0965-41.202-0.91884-31.373 0.15224-39.885 0.36795-41.668 1.056-2.7223 1.0504-4.7458 4.2422-3.7638 5.9368 1.3176 2.2736 2.8013 2.7441 10.152 3.2199 8.3892 0.54297 71.771 0.39714 74.278-0.17091z"/>
  <path transform="rotate(135 249.54 252.92)" d="m263.63 179.42c-0.18732 0.14078-1.775 0.37535-3.5282 0.52122-1.7531 0.14587-4.7055 0.74956-6.561 1.3414-1.8552 0.59189-7.0227 1.801-11.483 2.6871-4.4605 0.88594-8.9094 1.8424-9.8865 2.1253-0.97693 0.28294-2.6108 0.51973-3.6307 0.52614-1.0198 0.00647-2.6234 0.46188-3.5634 1.0122l-1.7093 1.0005 1.1626 2.5388c2.1257 4.6422 7.9974 21.92 9.4542 27.82 1.5192 6.152 2.6747 16.255 2.2486 19.658-0.22043 1.7609-0.52335 2.0742-2.2608 2.3389-1.6927 0.25784-2.0063 0.55856-2.0063 1.9231 0 0.88963 0.50488 2.3613 1.1222 3.2705 0.95194 1.4023 1.0487 2.7345 0.6386 8.7856-0.52568 7.7575-0.71574 8.178-5.2601 11.64-2.526 1.9242-2.7163 2.2793-2.7163 5.0678 0 3.7392-1.224 3.1665-1.851-0.86603l-0.433-2.7846-3.5199 0.3263c-1.9358 0.17954-4.6723 0.47394-6.0808 0.65433-2.4905 0.31891-2.5929 0.26758-3.7089-1.857-1.9246-3.6641 1.2924-3.4657-38.966-2.4033-5.5078 0.14536-20.115 0.49646-32.46 0.78024-33.385 0.76743-42.389 1.1103-43.261 1.6473-0.43311 0.26678-1.4364 1.6339-2.2295 3.0382-1.7866 3.1638-3.1808 3.6986-4.1457 1.5904-0.63837-1.395-1.0049-1.5463-3.7465-1.5463-2.8572 0-3.104 0.11789-4.1296 1.9728-0.59998 1.085-1.277 2.6311-1.5047 3.4358-0.40451 1.4301-0.49341 1.4549-3.9551 1.1051-2.7352-0.2764-3.7134-0.18021-4.2979 0.42252-0.41615 0.4292-1.9222 0.92313-3.3466 1.0976l-2.5899 0.3173v-2.7551c0-1.5153-0.37294-3.0392-0.82874-3.3864-1.1973-0.91199-5.3454-0.79968-5.8278 0.15781-0.27029 0.53668-1.3736 0.78909-3.4485 0.78909-2.6397 0-3.1419 0.18198-3.7246 1.3495-1.0008 2.0051-0.81607 4.3244 0.38516 4.8364 0.63519 0.27084-3.0251 0.49997-9.1508 0.57288-5.6152 0.066833-11.237 0.3717-12.493 0.67746-1.3388 0.32602-5.0522 0.43677-8.9782 0.26767-3.6822-0.15857-14.387-0.2894-23.788-0.29074-5.1622-0.17474-10.06-0.14056-13.94-0.10117-3.8792 0.039368-6.7396 0.083954-7.8265-0.070007-23.31 0.012695-30.026 0.071503-31.123 1.2638-0.91183 0.99161-1.4515 2.9359-1.6546 5.9614-0.10559 1.5726 0.90113 4.0934 2.0312 5.086 9.5944 0.013275 23.036 0.16834 30.585 0.17929 1.8452-0.17923 5.498-0.35068 10.359-0.49643 4.8613-0.14578 10.931-0.26584 17.611-0.34226 5.3178-0.060852 10.424-0.32284 11.348-0.58221 0.95921-0.26935 9.9031-0.31409 20.855-0.10437l19.175 0.3672 0.0274 14.083c0.026928 13.838 0.40491 16.522 2.3493 16.687 0.44269 0.037537 2.2034 0.21582 3.9127 0.39609 3.8742 0.40854 3.2018 0.88538 15.845-11.238 5.8847-5.6422 10.172-9.3217 10.455-8.9728 0.53538 0.65985 117.04 1.4198 120.36 0.78506 1.4652-0.28009 2.0084-0.83878 2.6827-2.7588l0.8452-2.4075 3.4646 0.3398c1.9055 0.18683 4.5679 0.46939 5.9163 0.62796 2.3693 0.27853 2.4742 0.22006 3.1132-1.735 0.51912-1.588 0.69395-0.23007 0.81288 6.3122 0.13782 7.5746 0.29491 8.5293 1.7213 10.458 0.86319 1.1676 2.8128 2.7998 4.3321 3.6269 2.7259 1.484 3.0374 1.5215 23.481 2.8243 34.906 2.2245 60.302 3.9327 70.62 4.7503 5.4148 0.42905 12.031 0.78009 14.703 0.78009 4.6654 0 4.9684-0.078644 7.6538-1.9868 2.179-1.5483 2.9362-2.5576 3.4305-4.5735 0.34891-1.4227 0.45621-3.0144 0.23852-3.5371-0.26428-0.63409-0.043976-0.95029 0.66217-0.95029 1.3394 0 2.1917-1.2214 4.9456-7.0868 2.0254-4.3138 2.4031-4.7564 4.3948-5.1496 2.5037-0.49414 5.6079-2.5741 4.3271-2.8993-1.6711-0.42435-0.75003-0.98267 1.2518-0.75888 1.8772 0.2099 2.0794 0.090149 2.1514-1.2748 0.043701-0.82855 0.024292-1.9207-0.043365-2.4271-0.09082-0.67956 0.38577-0.92224 1.8197-0.92685 1.0684-0.003448 3.652-0.35574 5.7411-0.78293 2.0892-0.42712 5.1193-0.77942 6.7336-0.78287 2.145-0.004547 2.9352-0.21866 2.9352-0.79535 0-0.68561 3.0125-0.78909 22.97-0.78909 22.368 0 22.993 0.028137 23.849 1.0726 0.48367 0.58987 1.2022 0.92059 1.5968 0.73477 0.39471-0.18579 17.91-0.46304 38.922-0.61606l38.205-0.2782 5.1065 3.3924c2.8087 1.8658 6.9902 4.3668 9.2922 5.5576 2.3021 1.1909 5.9089 3.365 8.0153 4.8313 2.1064 1.4664 4.3074 2.6662 4.8912 2.6662 0.58392 0 1.7304-0.651 2.5475-1.4467 0.81714-0.79568 2.1607-1.5782 2.9854-1.7389 0.99554-0.19394 1.4365-0.63724 1.3118-1.3189-0.10315-0.5647 0.39136-2.3271 1.0991-3.9165 1.1726-2.6332 1.4956-2.913 3.6408-3.1528 2.0034-0.22382 2.606-0.65015 4.0441-2.8612 1.6116-2.4775 1.6912-3.0639 1.7128-12.626 0.033447-14.848-1.1238-26.712-3.8516-39.488-0.74127-3.4721-1.7741-6.6412-2.2951-7.0425-1.3408-1.0325-2.9248-0.39308-4.0336 1.6283-0.75665 1.3794-1.7842 1.9943-5.0288 3.009-2.2429 0.70148-8.8487 3.0092-14.68 5.1283-5.8306 2.1191-10.834 3.8529-11.118 3.8529-0.28424 0-0.58166-1.6984-0.66126-3.774-0.23798-6.2065-0.37463-6.2396-8.187-1.9768-3.6995 2.0186-9.0573 4.9416-11.906 6.4955-4.5796 2.4979-5.6395 2.847-9.1443 3.0131-4.194 0.1987-4.668-0.047668-4.668-2.4259 0-1.4206-2.4995-1.9182-6.0828-1.2109-1.8563 0.36641-2.2048 0.68216-2.2048 1.9984 0 1.1222-0.34097 1.5749-1.2085 1.6048-0.6648 0.022949-3.3704 0.11002-6.0126 0.1936-2.8414 0.089874-4.9122 0.39908-5.0687 0.75687-0.1456 0.3327-0.78085 1.0024-1.4117 1.4882-0.91592 0.70535-1.1469 1.9488-1.1469 6.172v5.2888l-12.053 0.1466c-10.688 0.13004-12.188 0.25687-13.243 1.1198-0.95673 0.78223-2.2576 0.97846-6.6329 1.0005-4.8239 0.024231-6.0014 0.24091-10.355 1.9052-4.8206 1.8429-5.0669 1.8778-13.255 1.8778-5.102 0-8.3435 0.20438-8.3435 0.52603 0 0.89462-7.3882 0.64694-7.8467-0.26297-0.27231-0.54083-1.3823-0.78915-3.527-0.78915-1.7212 0-3.1407-0.17755-3.1545-0.39453-0.15228-2.4076-0.8425-9.8854-0.91879-9.9546-0.054901-0.049835-2.2735-0.14343-4.9304-0.20801-2.9681-0.072144-5.7625-0.47583-7.2478-1.047-2.912-1.1198-6.3237-3.795-7.9258-6.2147-2.2926-3.4624-2.1986-3.5938 24.972-34.901 3.9458-4.5466 7.6009-8.5915 8.1224-8.9888 0.52148-0.39729 1.2412-1.5306 1.5994-2.5187 1.5066-4.1567-1.6258-5.4342-20.552-8.3811-12.02-1.8715-15.356-1.9712-17.266-0.51619-1.4544 1.1079-1.8256 3.6452-0.75613 5.1675 0.68366 0.97304 0.18323 1.8275-6.0638 10.357-4.7667 6.5077-6.4738 8.0272-9.506 8.4605-3.256 0.4653-4.3555 2.2011-2.8937 4.5687 0.87476 1.4169 0.90244 1.9614 0.16836 3.31-1.4111 2.5925-2.4758 2.9338-10.103 3.2383-3.9072 0.15604-7.4559 0.49522-7.8862 0.75366-1.1515 0.692-25.866 0.58012-29.588-0.1339-1.7318-0.33217-3.2886-0.77643-3.4596-0.98729-0.17108-0.21086-0.64255-3.0817-1.0477-6.3797-1.0377-8.4487-3.2243-18.046-5.8607-25.724-1.2419-3.6167-2.8083-8.233-3.481-10.258-0.67288-2.0254-1.643-4.4285-2.156-5.3403-0.51303-0.91179-0.93283-2.3859-0.93283-3.2759 0-1.1084-0.50082-1.8681-1.59-2.4117-1.7135-0.85521-5.4561-1.577-6.0116-1.1594zm56.295 62.139c3.7236 2.3243 4.9646 4.4504 3.8229 6.5499-1.0748 1.9767-3.3386 3.5642-5.726 4.0156-1.8667 0.3529-1.8992 0.31735-1.8992-2.0822 0-1.3427-0.48202-3.3214-1.071-4.3972-1.0545-1.9257-4.8863-5.3754-5.9708-5.3754-0.97906 0-0.5928 1.9517 0.52624 2.6592 2.1421 1.3541 3.2116 3.6922 2.7534 6.0194-0.77811 3.9524-1.2209 4.1331-9.9094 4.0438-8.778-0.09021-12.369-0.90625-14.162-3.2179-1.6015-2.0652-1.543-2.4254 1.0486-6.4489l2.2675-3.5205 12.706-0.0305 12.706-0.0305 2.9085 1.8154zm-238.33 56.508c0.38216 0.47107-2.5038 4.0159-5.269 6.4717-0.86886 0.77179-2.8168 2.6065-4.3287 4.0772-3.8673 3.7619-6.5746 3.5937-6.5746-0.40848 0-1.68-1.7396-3.7566-3.147-3.7566-0.75472 0-0.9968-0.74527-0.9968-3.0688 0-1.6879 0.2072-3.2266 0.46043-3.4195 0.6865-0.52292 19.427-0.42438 19.856 0.10443zm233.06 8.6724c6.0626 1.1334 7.1951 5.0002 2.217 7.5688-1.6582 0.85556-4.6033 0.90973-41.441 0.76227-31.555-0.12628-40.116-0.30524-41.91-0.87607-2.7381-0.87149-4.7733-3.5195-3.7856-4.9254 1.3252-1.8862 2.8175-2.2766 10.211-2.6713 8.4378-0.4505 72.187-0.32953 74.708 0.14175z"/>
 </g>
</svg>
