<?xml version="1.0" encoding="UTF-8"?>
<svg version="1.1" viewBox="0 0 1728.4 667.97" xmlns="http://www.w3.org/2000/svg">
 <g transform="translate(182.84 -346)">
  <path d="m511.88 346c-2.2063 0-4.397 0.75299-5.2812 2.2812l-7.6 13.13c-1.5385 2.6592-1.5 6.0215-1.5 9.0938v27.281h-34.344l-6.7812 15.031-3.1562 5.4688-82.5 0.0937-0.0312 3.7188-24.219 30.75h-92.906l-4.4062 7.5-432-2.9688v14.281l420 9.25-9.875 16.875v38.906l5.5625-4.0625h103.53l10.63 36.37 2.5-10.094h7.5938l12.062 12.062-0.4375 43c-23.055 6.0312-32.179-3.0544-40.406-7.0938-6.7148 9.9151-22.048 20.226-34.344 29.312h-46.469l-7.0938 5.0312h-38.375l-23.094 41.969c-13.548-3.2193-12.179-14.655-7.2188-20.25l-3.5312-7.5625c-14.695 10.374-17.841 22.977-16.812 36.375h-9.4375l-0.90625 1.5625h-15.281v5h-38.375v4.5312h38.375v3.0312h15.156l1.6875 2.9375h11.719c1.031 4.4002 2.1351 8.8204 3.1562 13.219-111.99-9.2655-205.6-1.0597-211 90.938l38.375 18.531 17.188 58.219 34.344 32.344 195.13 89.669c3.8532 1.7707 6.6147 2.2372 10.678 2.2372h1028.2c3.7205 0 6.4112-0.5415 9.75-1.8438l208.88-81.5 36.75-23.25 14.281-40.719 4.9688-47.625h0.5624l-28.281-28.312 25.25-38.375-38.375-19.188 9.0938-14.156h17.156l2.0312-140.41h-6.375c-0.2764-3.5019-3.1746-6.2188-6.75-6.2188-3.5753 0-6.4735 2.7169-6.75 6.2188h-96.125c-0.2764-3.5019-3.1746-6.2188-6.75-6.2188-3.575 0-6.4731 2.7173-6.75 6.2188h-26.062l-40.5 40.44c-53.261-36.663-103.92-39.375-154.56-39.375h-78.469c-0.8452-2.2354-2.6165-3.7812-4.6562-3.7812s-3.811 1.5459-4.6562 3.7812h-58.375c-0.8453-2.2354-2.6166-3.7812-4.6563-3.7812-2.0379 0-3.7789 1.5492-4.625 3.7812h-23.562c-0.8453-2.2354-2.5853-3.7812-4.625-3.7812s-3.811 1.5459-4.6562 3.7812h-118.59l-3.7188-13.844h28.719l-22.812-60.094 5.4688-2.0312c4.2348-1.5799 6.4083-6.2794 4.875-10.531-1.5333-4.2519-6.1715-6.3924-10.406-4.8125l-5.75 2.125-10.062-26.469 20.562-7.5938c4.6193-1.7056 1.9251-6.4868-2.0312-5.0625l-20.531 7.375-20.031-52.75h-12.406c-9.4-20.9-30.47-35.44-54.96-35.44-24.485 0-45.562 14.539-55.125 35.438h-18.656v-1.7812c0-5.3095-4.253-9.5938-9.5625-9.5938s-9.5938 4.2842-9.5938 9.5938v1.7812h-89.219l-4.7188-8.1562h-22.031c-0.10958-5.1754-3.1568-9.2812-6.9375-9.2812s-6.8592 4.1059-6.9688 9.2812h-22.656v-27.281c0-3.0722 0.0385-6.4346-1.5-9.0938l-7.5938-13.125c-0.87-1.53-3.09-2.28-5.29-2.28zm-402.41 546.09 36.03 14.29c0.51369 8.4359 2.0113 16.613 4.375 24.406-2.1523-1.9949-5.9206-3.1048-7.9688-1.6875l-12.469 8.625c-2.5268 1.7479-3.9075 4.8154-5.2188 7.5938l-4.1875 8.8125-48.092-22.65 5.062-10.75c1.3113-2.7784 2.7876-5.7823 2.5312-8.8438v-0.0937c11.095-4.8527 21.198-11.548 29.938-19.688zm248.75 14.562h46.031c3.2747 55.911 49.642 100.25 106.38 100.25 18.393 0 35.712-4.6719 50.812-12.875-0.0304 0.89333-0.0312 1.7869-0.0312 2.6562v10.688h-148.5v-10.688c0-3.0722 0.0385-6.4346-1.5-9.0938l-7.5938-13.125c-1.7684-3.0565-8.8253-3.0565-10.594 0l-7.5938 13.125c-1.5385 2.6592-1.5 6.0215-1.5 9.0938v10.688h-58.094v-10.688c0-3.0722 0.0385-6.4346-1.5-9.0938l-3.75-6.5c21.412-18.166 35.544-44.636 37.438-74.438zm258.78 0h59.406c3.2749 55.911 49.642 100.25 106.38 100.25 17.001 0 33.052-3.9818 47.312-11.062-5.5e-4 0.28043 0 0.5673 0 0.84375v10.688h-150.53v-10.688c0-3.0722 0.0385-6.4346-1.5-9.0938l-7.5938-13.125c-1.7684-3.0565-8.8253-3.0565-10.594 0l-7.5938 13.125c-1.5385 2.6592-1.5 6.0215-1.5 9.0938v10.688h-60.594v-10.688c0-3.0722 0.0385-6.4346-1.5-9.0938l-5.4062-9.3125c19.4-18.1 32.05-43.38 33.7-71.61zm272.16 0h25.094c3.2747 55.911 49.642 100.25 106.38 100.25 56.733 0 103.1-44.339 106.38-100.25h22.312c2.1293 31.357 17.687 59.032 40.969 77.312l-2.0937 3.625c-1.5385 2.6592-1.5 6.0215-1.5 9.0938v10.688h-57.812v-10.688c0-3.0722 0.039-6.4346-1.5-9.0938l-7.5938-13.125c-1.7683-3.0565-8.8253-3.0565-10.594 0l-7.5937 13.125c-1.5386 2.6592-1.5 6.0215-1.5 9.0938v10.688h-148.38v-10.688c0-3.0722 0.0385-6.4346-1.5-9.0938l-7.5938-13.125c-1.7684-3.0565-8.8253-3.0565-10.594 0l-7.5938 13.125c-1.5385 2.6592-1.5 6.0215-1.5 9.0938v10.688h-64.062v-10.688c0-3.0722 0.0385-6.4346-1.5-9.0938l-4.1875-7.25c20.701-18.228 34.252-44.368 35.969-73.688zm474.94 0h30.844c18.196 14.082 41.024 22.469 65.812 22.469 8.3391 0 16.457-0.95536 24.25-2.75l-89.156 34.344-4.2188-10.594c-1.128-2.8577-2.3108-5.9979-4.7188-7.9062l-11.875-9.4375c-2.7671-2.1938-9.3523 0.4139-9.875 3.9062l-2.2187 15c-0.4547 3.0384 0.8095 6.1423 1.9375 9l4.0938 10.375-66.281 25.531c34.335-16.249 58.702-50.115 61.406-89.938zm-1212.4 29.6c6.9988 19.225 19.379 35.854 35.312 48.094l-40.812-18.25 4.0312-8.5c1.3113-2.7784 2.7563-5.7823 2.5-8.8438zm145.53 60.03c1e-5 0.13414 0 0.27312 0 0.40625v10.688h-58.688l-6.25-2.7812c6.3471 1.1786 12.874 1.7812 19.562 1.7812 16.221 0 31.613-3.6114 45.375-10.094zm918.22 2.4375c12.274 5.0946 25.709 7.968 39.781 8.1562l-0.7812 0.5h-39z"/>
 </g>
</svg>
